<svg xmlns="http://www.w3.org/2000/svg" viewBox="0 -0.5 64 64" shape-rendering="crispEdges">
<metadata>Made with Pixels to Svg https://codepen.io/shshaw/pen/XbxvNj</metadata>
<path stroke="#000000" d="M2 2h21M2 3h1M22 3h1M2 4h1M22 4h39M2 5h1M5 5h2M8 5h2M11 5h2M22 5h1M60 5h1M2 6h1M5 6h2M8 6h2M11 6h2M22 6h1M60 6h1M2 7h1M22 7h1M60 7h1M2 8h1M22 8h40M2 9h1M61 9h1M2 10h1M61 10h1M2 11h1M61 11h1M2 12h1M61 12h1M2 13h1M61 13h1M2 14h1M14 14h36M61 14h1M2 15h1M14 15h1M23 15h2M39 15h2M42 15h1M46 15h1M49 15h1M61 15h1M2 16h1M14 16h1M43 16h1M45 16h1M49 16h1M61 16h1M2 17h1M14 17h1M41 17h1M43 17h1M45 17h1M49 17h1M61 17h1M2 18h1M14 18h1M18 18h1M44 18h1M49 18h1M61 18h1M2 19h1M14 19h1M49 19h1M61 19h1M2 20h1M14 20h1M16 20h1M45 20h3M49 20h1M61 20h1M2 21h1M14 21h1M45 21h3M49 21h1M61 21h1M2 22h1M14 22h1M49 22h1M61 22h1M2 23h1M14 23h1M49 23h1M61 23h1M2 24h1M14 24h1M49 24h1M61 24h1M2 25h1M14 25h1M49 25h1M61 25h1M2 26h1M14 26h1M29 26h6M49 26h1M61 26h1M2 27h1M14 27h1M28 27h2M34 27h2M49 27h1M61 27h1M2 28h1M14 28h1M27 28h2M35 28h2M49 28h1M61 28h1M2 29h1M14 29h1M26 29h2M34 29h1M36 29h2M49 29h1M61 29h1M2 30h1M14 30h1M26 30h1M37 30h1M49 30h1M61 30h1M2 31h1M14 31h1M26 31h1M29 31h1M31 31h2M37 31h1M49 31h1M61 31h1M2 32h1M14 32h1M26 32h1M31 32h2M37 32h1M49 32h1M61 32h1M2 33h1M14 33h1M26 33h1M37 33h1M49 33h1M61 33h1M2 34h1M14 34h1M26 34h2M34 34h1M36 34h2M49 34h1M61 34h1M2 35h1M14 35h1M27 35h2M35 35h2M49 35h1M61 35h1M2 36h1M14 36h1M28 36h2M34 36h2M49 36h1M61 36h1M2 37h1M14 37h3M29 37h6M47 37h3M61 37h1M2 38h1M14 38h1M16 38h1M47 38h1M49 38h1M61 38h1M2 39h1M14 39h3M47 39h3M61 39h1M2 40h1M14 40h1M49 40h1M61 40h1M2 41h1M14 41h3M47 41h3M61 41h1M2 42h1M14 42h1M16 42h1M47 42h1M49 42h1M61 42h1M2 43h1M14 43h1M16 43h1M30 43h4M45 43h1M47 43h1M49 43h1M61 43h1M2 44h1M14 44h3M29 44h1M34 44h1M47 44h3M61 44h1M2 45h1M14 45h1M16 45h1M28 45h8M41 45h5M47 45h1M49 45h1M61 45h1M2 46h1M14 46h1M16 46h1M28 46h1M35 46h1M41 46h1M43 46h1M45 46h1M47 46h1M49 46h1M61 46h1M2 47h1M14 47h1M16 47h1M24 47h2M28 47h8M38 47h2M41 47h5M47 47h1M49 47h1M61 47h1M2 48h1M14 48h1M16 48h1M28 48h1M35 48h1M47 48h1M49 48h1M61 48h1M2 49h1M14 49h36M61 49h1M2 50h1M61 50h1M2 51h1M61 51h1M2 52h1M61 52h1M2 53h1M61 53h1M2 54h1M61 54h1M2 55h1M61 55h1M2 56h1M61 56h1M2 57h1M61 57h1M2 58h1M61 58h1M2 59h1M61 59h1M2 60h1M61 60h1M2 61h60" />
<path stroke="#ffc20e" d="M3 3h19M3 4h1M21 4h1M3 5h1M21 5h1M3 6h1M21 6h1M3 7h1M21 7h1M3 8h19M3 9h58M3 10h58M3 11h58M3 12h58M3 13h58M3 14h11M50 14h11M3 15h11M15 15h8M25 15h14M41 15h1M43 15h3M47 15h2M50 15h11M3 16h11M15 16h28M44 16h1M46 16h3M50 16h11M3 17h11M15 17h26M42 17h1M44 17h1M46 17h3M50 17h11M3 18h11M15 18h3M19 18h25M45 18h4M50 18h11M3 19h11M15 19h34M50 19h11M3 20h11M15 20h1M17 20h28M48 20h1M50 20h11M3 21h11M15 21h30M48 21h1M50 21h11M3 22h11M15 22h34M50 22h11M3 23h11M15 23h34M50 23h11M3 24h11M15 24h34M50 24h11M3 25h11M15 25h34M50 25h11M3 26h11M15 26h14M35 26h14M50 26h11M3 27h11M15 27h13M30 27h4M36 27h13M50 27h11M3 28h11M15 28h12M29 28h6M37 28h12M50 28h11M3 29h11M15 29h11M28 29h6M35 29h1M38 29h11M50 29h11M3 30h11M15 30h11M27 30h10M38 30h11M50 30h11M3 31h11M15 31h11M27 31h2M30 31h1M33 31h4M38 31h11M50 31h11M3 32h11M15 32h11M27 32h4M33 32h4M38 32h11M50 32h11M3 33h11M15 33h11M27 33h10M38 33h11M50 33h11M3 34h11M15 34h11M28 34h6M35 34h1M38 34h11M50 34h11M3 35h11M15 35h12M29 35h6M37 35h12M50 35h11M3 36h11M15 36h13M30 36h4M36 36h13M50 36h11M3 37h11M17 37h12M35 37h12M50 37h11M3 38h11M15 38h1M17 38h30M48 38h1M50 38h11M3 39h11M17 39h30M50 39h11M3 40h11M15 40h34M50 40h11M3 41h11M17 41h30M50 41h11M3 42h11M15 42h1M17 42h30M48 42h1M50 42h11M3 43h11M15 43h1M17 43h13M34 43h11M46 43h1M48 43h1M50 43h11M3 44h11M17 44h12M30 44h4M35 44h12M50 44h11M3 45h11M15 45h1M17 45h11M36 45h5M46 45h1M48 45h1M50 45h11M3 46h11M15 46h1M17 46h11M29 46h6M36 46h5M42 46h1M44 46h1M46 46h1M48 46h1M50 46h11M3 47h11M15 47h1M17 47h7M26 47h2M36 47h2M40 47h1M46 47h1M48 47h1M50 47h11M3 48h11M15 48h1M17 48h11M29 48h6M36 48h11M48 48h1M50 48h11M3 49h11M50 49h11M3 50h58M3 51h58M3 52h58M3 53h58M3 54h58M3 55h58M3 56h58M3 57h58M3 58h58M3 59h58M3 60h58" />
<path stroke="#ffffff" d="M4 4h17M4 5h1M7 5h1M10 5h1M13 5h8M4 6h1M7 6h1M10 6h1M13 6h8M4 7h17" />
<path stroke="#ff7e00" d="M23 5h37M23 6h37M23 7h37" />
</svg>