<svg xmlns="http://www.w3.org/2000/svg" viewBox="0 -0.5 48 48" shape-rendering="crispEdges">
<metadata>Made with Pixels to Svg https://codepen.io/shshaw/pen/XbxvNj</metadata>
<path stroke="#000000" d="M1 1h16M1 2h1M16 2h1M1 3h1M16 3h30M1 4h1M4 4h1M6 4h1M8 4h1M16 4h1M45 4h1M1 5h1M16 5h1M45 5h1M1 6h1M16 6h31M1 7h1M46 7h1M1 8h1M46 8h1M1 9h1M46 9h1M1 10h1M46 10h1M1 11h1M46 11h1M1 12h1M46 12h1M1 13h1M46 13h1M1 14h1M46 14h1M1 15h1M46 15h1M1 16h1M46 16h1M1 17h1M46 17h1M1 18h1M46 18h1M1 19h1M46 19h1M1 20h1M46 20h1M1 21h1M46 21h1M1 22h1M46 22h1M1 23h1M46 23h1M1 24h1M46 24h1M1 25h1M46 25h1M1 26h1M46 26h1M1 27h1M46 27h1M1 28h1M46 28h1M1 29h1M46 29h1M1 30h1M46 30h1M1 31h1M46 31h1M1 32h1M46 32h1M1 33h1M46 33h1M1 34h1M46 34h1M1 35h1M46 35h1M1 36h1M46 36h1M1 37h1M46 37h1M1 38h1M46 38h1M1 39h1M46 39h1M1 40h1M46 40h1M1 41h1M46 41h1M1 42h1M46 42h1M1 43h1M46 43h1M1 44h1M46 44h1M1 45h1M46 45h1M1 46h46" />
<path stroke="#ffc20e" d="M2 2h14M2 3h1M15 3h1M2 4h1M15 4h1M2 5h1M15 5h1M2 6h14M2 7h44M2 8h44M2 9h44M2 10h44M2 11h44M2 12h44M2 13h44M2 14h44M2 15h44M2 16h44M2 17h44M2 18h44M2 19h44M2 20h44M2 21h44M2 22h44M2 23h44M2 24h44M2 25h44M2 26h44M2 27h44M2 28h44M2 29h44M2 30h44M2 31h44M2 32h44M2 33h44M2 34h44M2 35h44M2 36h44M2 37h44M2 38h44M2 39h44M2 40h44M2 41h44M2 42h44M2 43h44M2 44h44M2 45h44" />
<path stroke="#ffffff" d="M3 3h12M3 4h1M5 4h1M7 4h1M9 4h6M3 5h12" />
<path stroke="#ff7e00" d="M17 4h28M17 5h28" />
</svg>