<svg xmlns="http://www.w3.org/2000/svg" viewBox="0 -0.5 48 48" shape-rendering="crispEdges">
<metadata>Made with Pixels to Svg https://codepen.io/shshaw/pen/XbxvNj</metadata>
<path stroke="#000000" d="M1 1h16M1 2h1M16 2h1M1 3h1M16 3h30M1 4h1M4 4h1M6 4h1M8 4h1M16 4h1M45 4h1M1 5h1M16 5h1M45 5h1M1 6h1M16 6h31M1 7h1M46 7h1M1 8h1M46 8h1M1 9h1M46 9h1M1 10h1M46 10h1M1 11h1M46 11h1M1 12h1M17 12h14M46 12h1M1 13h1M17 13h1M30 13h1M46 13h1M1 14h1M17 14h1M30 14h1M46 14h1M1 15h1M17 15h1M30 15h1M46 15h1M1 16h1M17 16h1M30 16h1M46 16h1M1 17h1M17 17h1M30 17h1M46 17h1M1 18h1M17 18h1M30 18h1M46 18h1M1 19h1M17 19h3M28 19h3M46 19h1M1 20h1M17 20h6M25 20h6M46 20h1M1 21h1M17 21h14M46 21h1M1 22h1M17 22h14M46 22h1M1 23h1M17 23h14M46 23h1M1 24h1M17 24h14M46 24h1M1 25h1M20 25h8M46 25h1M1 26h1M17 26h14M46 26h1M1 27h1M17 27h1M23 27h2M30 27h1M46 27h1M1 28h1M17 28h1M23 28h2M30 28h1M46 28h1M1 29h1M17 29h1M23 29h2M30 29h1M46 29h1M1 30h1M17 30h1M23 30h2M30 30h1M46 30h1M1 31h1M17 31h1M23 31h2M30 31h1M46 31h1M1 32h1M17 32h1M23 32h2M30 32h1M46 32h1M1 33h1M17 33h1M23 33h2M30 33h1M46 33h1M1 34h1M17 34h1M22 34h4M30 34h1M46 34h1M1 35h1M17 35h1M19 35h10M30 35h1M46 35h1M1 36h1M17 36h14M46 36h1M1 37h1M17 37h14M46 37h1M1 38h1M17 38h14M46 38h1M1 39h1M46 39h1M1 40h1M46 40h1M1 41h1M46 41h1M1 42h1M46 42h1M1 43h1M46 43h1M1 44h1M46 44h1M1 45h1M46 45h1M1 46h46" />
<path stroke="#ffc20e" d="M2 2h14M2 3h1M15 3h1M2 4h1M15 4h1M2 5h1M15 5h1M2 6h14M2 7h44M2 8h44M2 9h44M2 10h44M2 11h44M2 12h15M31 12h15M2 13h15M18 13h12M31 13h15M2 14h15M18 14h12M31 14h15M2 15h15M18 15h12M31 15h15M2 16h15M18 16h12M31 16h15M2 17h15M18 17h12M31 17h15M2 18h15M18 18h12M31 18h15M2 19h15M20 19h8M31 19h15M2 20h15M23 20h2M31 20h15M2 21h15M31 21h15M2 22h15M31 22h15M2 23h15M31 23h15M2 24h15M31 24h15M2 25h18M28 25h18M2 26h15M31 26h15M2 27h15M18 27h5M25 27h5M31 27h15M2 28h15M18 28h5M25 28h5M31 28h15M2 29h15M18 29h5M25 29h5M31 29h15M2 30h15M18 30h5M25 30h5M31 30h15M2 31h15M18 31h5M25 31h5M31 31h15M2 32h15M18 32h5M25 32h5M31 32h15M2 33h15M18 33h5M25 33h5M31 33h15M2 34h15M18 34h4M26 34h4M31 34h15M2 35h15M18 35h1M29 35h1M31 35h15M2 36h15M31 36h15M2 37h15M31 37h15M2 38h15M31 38h15M2 39h44M2 40h44M2 41h44M2 42h44M2 43h44M2 44h44M2 45h44" />
<path stroke="#ffffff" d="M3 3h12M3 4h1M5 4h1M7 4h1M9 4h6M3 5h12" />
<path stroke="#ff7e00" d="M17 4h28M17 5h28" />
</svg>