<svg xmlns="http://www.w3.org/2000/svg" viewBox="0 -0.5 48 48" shape-rendering="crispEdges">
<metadata>Made with Pixels to Svg https://codepen.io/shshaw/pen/XbxvNj</metadata>
<path stroke="#000000" d="M1 1h16M1 2h1M16 2h1M1 3h1M16 3h30M1 4h1M4 4h1M6 4h1M8 4h1M16 4h1M45 4h1M1 5h1M16 5h1M45 5h1M1 6h1M16 6h31M1 7h1M46 7h1M1 8h1M46 8h1M1 9h1M12 9h2M46 9h1M1 10h1M12 10h3M46 10h1M1 11h1M46 11h1M1 12h1M14 12h3M46 12h1M1 13h1M15 13h3M46 13h1M1 14h1M46 14h1M1 15h1M15 15h3M46 15h1M1 16h1M15 16h1M17 16h1M46 16h1M1 17h1M13 17h23M46 17h1M1 18h1M13 18h1M35 18h1M46 18h1M1 19h1M13 19h1M15 19h19M35 19h1M46 19h1M1 20h1M13 20h1M15 20h1M33 20h1M35 20h1M46 20h1M1 21h1M13 21h1M15 21h1M21 21h7M33 21h1M35 21h1M46 21h1M1 22h1M13 22h1M15 22h1M21 22h1M27 22h1M33 22h1M35 22h1M46 22h1M1 23h1M13 23h1M15 23h1M33 23h1M35 23h1M46 23h1M1 24h1M13 24h1M15 24h1M33 24h1M35 24h1M46 24h1M1 25h1M13 25h1M15 25h1M33 25h1M35 25h1M46 25h1M1 26h1M13 26h1M15 26h1M33 26h1M35 26h1M46 26h1M1 27h1M13 27h1M15 27h1M33 27h1M35 27h1M46 27h1M1 28h1M13 28h1M15 28h1M33 28h1M35 28h1M46 28h1M1 29h1M13 29h1M15 29h1M33 29h1M35 29h1M46 29h1M1 30h1M13 30h1M15 30h1M33 30h1M35 30h1M46 30h1M1 31h1M13 31h1M15 31h1M33 31h1M35 31h1M46 31h1M1 32h1M13 32h1M15 32h1M33 32h1M35 32h1M46 32h1M1 33h1M13 33h1M15 33h1M33 33h1M35 33h1M46 33h1M1 34h1M13 34h1M15 34h1M33 34h1M35 34h1M46 34h1M1 35h1M13 35h1M15 35h1M33 35h1M35 35h1M46 35h1M1 36h1M13 36h1M15 36h1M33 36h1M35 36h1M46 36h1M1 37h1M13 37h1M15 37h19M35 37h1M46 37h1M1 38h1M13 38h1M35 38h1M46 38h1M1 39h1M13 39h23M46 39h1M1 40h1M46 40h1M1 41h1M46 41h1M1 42h1M46 42h1M1 43h1M46 43h1M1 44h1M46 44h1M1 45h1M46 45h1M1 46h46" />
<path stroke="#ffc20e" d="M2 2h14M2 3h1M15 3h1M2 4h1M15 4h1M2 5h1M15 5h1M2 6h14M2 7h44M2 8h44M2 9h10M14 9h32M2 10h10M15 10h31M2 11h44M2 12h12M17 12h29M2 13h13M18 13h28M2 14h44M2 15h13M18 15h28M2 16h13M16 16h1M18 16h28M2 17h11M36 17h10M2 18h11M14 18h21M36 18h10M2 19h11M14 19h1M34 19h1M36 19h10M2 20h11M14 20h1M16 20h17M34 20h1M36 20h10M2 21h11M14 21h1M16 21h5M28 21h5M34 21h1M36 21h10M2 22h11M14 22h1M16 22h5M22 22h5M28 22h5M34 22h1M36 22h10M2 23h11M14 23h1M16 23h17M34 23h1M36 23h10M2 24h11M14 24h1M16 24h17M34 24h1M36 24h10M2 25h11M14 25h1M16 25h17M34 25h1M36 25h10M2 26h11M14 26h1M16 26h17M34 26h1M36 26h10M2 27h11M14 27h1M16 27h17M34 27h1M36 27h10M2 28h11M14 28h1M16 28h17M34 28h1M36 28h10M2 29h11M14 29h1M16 29h17M34 29h1M36 29h10M2 30h11M14 30h1M16 30h17M34 30h1M36 30h10M2 31h11M14 31h1M16 31h17M34 31h1M36 31h10M2 32h11M14 32h1M16 32h17M34 32h1M36 32h10M2 33h11M14 33h1M16 33h17M34 33h1M36 33h10M2 34h11M14 34h1M16 34h17M34 34h1M36 34h10M2 35h11M14 35h1M16 35h17M34 35h1M36 35h10M2 36h11M14 36h1M16 36h17M34 36h1M36 36h10M2 37h11M14 37h1M34 37h1M36 37h10M2 38h11M14 38h21M36 38h10M2 39h11M36 39h10M2 40h44M2 41h44M2 42h44M2 43h44M2 44h44M2 45h44" />
<path stroke="#ffffff" d="M3 3h12M3 4h1M5 4h1M7 4h1M9 4h6M3 5h12" />
<path stroke="#ff7e00" d="M17 4h28M17 5h28" />
</svg>