<svg xmlns="http://www.w3.org/2000/svg" viewBox="0 -0.5 64 64" shape-rendering="crispEdges">
<metadata>Made with Pixels to Svg https://codepen.io/shshaw/pen/XbxvNj</metadata>
<path stroke="#000000" d="M2 2h21M2 3h1M22 3h1M2 4h1M22 4h39M2 5h1M5 5h2M8 5h2M11 5h2M22 5h1M60 5h1M2 6h1M5 6h2M8 6h2M11 6h2M22 6h1M60 6h1M2 7h1M22 7h1M60 7h1M2 8h1M22 8h40M2 9h1M61 9h1M2 10h1M61 10h1M2 11h1M61 11h1M2 12h1M61 12h1M2 13h1M61 13h1M2 14h1M61 14h1M2 15h1M61 15h1M2 16h1M23 16h18M61 16h1M2 17h1M23 17h1M40 17h1M61 17h1M2 18h1M23 18h1M40 18h1M61 18h1M2 19h1M23 19h1M40 19h1M61 19h1M2 20h1M23 20h1M40 20h1M61 20h1M2 21h1M23 21h1M40 21h1M61 21h1M2 22h1M23 22h1M40 22h1M61 22h1M2 23h1M23 23h1M40 23h1M61 23h1M2 24h1M23 24h1M40 24h1M61 24h1M2 25h1M23 25h1M40 25h1M61 25h1M2 26h1M23 26h3M38 26h3M61 26h1M2 27h1M23 27h7M34 27h7M61 27h1M2 28h1M23 28h18M61 28h1M2 29h1M23 29h18M61 29h1M2 30h1M23 30h18M61 30h1M2 31h1M23 31h18M61 31h1M2 32h1M23 32h18M61 32h1M2 33h1M27 33h10M61 33h1M2 34h1M27 34h10M61 34h1M2 35h1M23 35h18M61 35h1M2 36h1M23 36h1M31 36h2M40 36h1M61 36h1M2 37h1M23 37h1M31 37h2M40 37h1M61 37h1M2 38h1M23 38h1M31 38h2M40 38h1M61 38h1M2 39h1M23 39h1M31 39h2M40 39h1M61 39h1M2 40h1M23 40h1M31 40h2M40 40h1M61 40h1M2 41h1M23 41h1M31 41h2M40 41h1M61 41h1M2 42h1M23 42h1M31 42h2M40 42h1M61 42h1M2 43h1M23 43h1M31 43h2M40 43h1M61 43h1M2 44h1M23 44h1M31 44h2M40 44h1M61 44h1M2 45h1M23 45h1M31 45h2M40 45h1M61 45h1M2 46h1M23 46h1M30 46h4M40 46h1M61 46h1M2 47h1M23 47h1M26 47h12M40 47h1M61 47h1M2 48h1M23 48h18M61 48h1M2 49h1M23 49h18M61 49h1M2 50h1M23 50h18M61 50h1M2 51h1M23 51h18M61 51h1M2 52h1M61 52h1M2 53h1M61 53h1M2 54h1M61 54h1M2 55h1M61 55h1M2 56h1M61 56h1M2 57h1M61 57h1M2 58h1M61 58h1M2 59h1M61 59h1M2 60h1M61 60h1M2 61h60" />
<path stroke="#ffc20e" d="M3 3h19M3 4h1M21 4h1M3 5h1M21 5h1M3 6h1M21 6h1M3 7h1M21 7h1M3 8h19M3 9h58M3 10h58M3 11h58M3 12h58M3 13h58M3 14h58M3 15h58M3 16h20M41 16h20M3 17h20M24 17h16M41 17h20M3 18h20M24 18h16M41 18h20M3 19h20M24 19h16M41 19h20M3 20h20M24 20h16M41 20h20M3 21h20M24 21h16M41 21h20M3 22h20M24 22h16M41 22h20M3 23h20M24 23h16M41 23h20M3 24h20M24 24h16M41 24h20M3 25h20M24 25h16M41 25h20M3 26h20M26 26h12M41 26h20M3 27h20M30 27h4M41 27h20M3 28h20M41 28h20M3 29h20M41 29h20M3 30h20M41 30h20M3 31h20M41 31h20M3 32h20M41 32h20M3 33h24M37 33h24M3 34h24M37 34h24M3 35h20M41 35h20M3 36h20M24 36h7M33 36h7M41 36h20M3 37h20M24 37h7M33 37h7M41 37h20M3 38h20M24 38h7M33 38h7M41 38h20M3 39h20M24 39h7M33 39h7M41 39h20M3 40h20M24 40h7M33 40h7M41 40h20M3 41h20M24 41h7M33 41h7M41 41h20M3 42h20M24 42h7M33 42h7M41 42h20M3 43h20M24 43h7M33 43h7M41 43h20M3 44h20M24 44h7M33 44h7M41 44h20M3 45h20M24 45h7M33 45h7M41 45h20M3 46h20M24 46h6M34 46h6M41 46h20M3 47h20M24 47h2M38 47h2M41 47h20M3 48h20M41 48h20M3 49h20M41 49h20M3 50h20M41 50h20M3 51h20M41 51h20M3 52h58M3 53h58M3 54h58M3 55h58M3 56h58M3 57h58M3 58h58M3 59h58M3 60h58" />
<path stroke="#ffffff" d="M4 4h17M4 5h1M7 5h1M10 5h1M13 5h8M4 6h1M7 6h1M10 6h1M13 6h8M4 7h17" />
<path stroke="#ff7e00" d="M23 5h37M23 6h37M23 7h37" />
</svg>