<svg xmlns="http://www.w3.org/2000/svg" viewBox="0 -0.5 64 64" shape-rendering="crispEdges">
<metadata>Made with Pixels to Svg https://codepen.io/shshaw/pen/XbxvNj</metadata>
<path stroke="#000000" d="M2 2h21M2 3h1M22 3h1M2 4h1M22 4h39M2 5h1M5 5h2M8 5h2M11 5h2M22 5h1M60 5h1M2 6h1M5 6h2M8 6h2M11 6h2M22 6h1M60 6h1M2 7h1M22 7h1M60 7h1M2 8h1M22 8h40M2 9h1M61 9h1M2 10h1M61 10h1M2 11h1M61 11h1M2 12h1M61 12h1M2 13h1M61 13h1M2 14h1M61 14h1M2 15h1M61 15h1M2 16h1M61 16h1M2 17h1M61 17h1M2 18h1M61 18h1M2 19h1M61 19h1M2 20h1M61 20h1M2 21h1M61 21h1M2 22h1M61 22h1M2 23h1M61 23h1M2 24h1M61 24h1M2 25h1M61 25h1M2 26h1M61 26h1M2 27h1M61 27h1M2 28h1M61 28h1M2 29h1M61 29h1M2 30h1M61 30h1M2 31h1M61 31h1M2 32h1M61 32h1M2 33h1M61 33h1M2 34h1M61 34h1M2 35h1M61 35h1M2 36h1M61 36h1M2 37h1M61 37h1M2 38h1M61 38h1M2 39h1M61 39h1M2 40h1M61 40h1M2 41h1M61 41h1M2 42h1M61 42h1M2 43h1M61 43h1M2 44h1M61 44h1M2 45h1M61 45h1M2 46h1M61 46h1M2 47h1M61 47h1M2 48h1M61 48h1M2 49h1M61 49h1M2 50h1M61 50h1M2 51h1M61 51h1M2 52h1M61 52h1M2 53h1M61 53h1M2 54h1M61 54h1M2 55h1M61 55h1M2 56h1M61 56h1M2 57h1M61 57h1M2 58h1M61 58h1M2 59h1M61 59h1M2 60h1M61 60h1M2 61h60" />
<path stroke="#ffc20e" d="M3 3h19M3 4h1M21 4h1M3 5h1M21 5h1M3 6h1M21 6h1M3 7h1M21 7h1M3 8h19M3 9h58M3 10h58M3 11h58M3 12h58M3 13h58M3 14h58M3 15h58M3 16h58M3 17h58M3 18h58M3 19h58M3 20h58M3 21h58M3 22h58M3 23h58M3 24h58M3 25h58M3 26h58M3 27h58M3 28h58M3 29h58M3 30h58M3 31h58M3 32h58M3 33h58M3 34h58M3 35h58M3 36h58M3 37h58M3 38h58M3 39h58M3 40h58M3 41h58M3 42h58M3 43h58M3 44h58M3 45h58M3 46h58M3 47h58M3 48h58M3 49h58M3 50h58M3 51h58M3 52h58M3 53h58M3 54h58M3 55h58M3 56h58M3 57h58M3 58h58M3 59h58M3 60h58" />
<path stroke="#ffffff" d="M4 4h17M4 5h1M7 5h1M10 5h1M13 5h8M4 6h1M7 6h1M10 6h1M13 6h8M4 7h17" />
<path stroke="#ff7e00" d="M23 5h37M23 6h37M23 7h37" />
</svg>