<svg xmlns="http://www.w3.org/2000/svg" viewBox="0 -0.5 64 64" shape-rendering="crispEdges">
<metadata>Made with Pixels to Svg https://codepen.io/shshaw/pen/XbxvNj</metadata>
<path stroke="#000000" d="M10 3h51M9 4h1M60 4h1M8 5h1M60 5h1M7 6h1M60 6h1M6 7h1M25 7h1M43 7h1M60 7h1M5 8h1M24 8h2M42 8h2M60 8h1M4 9h1M24 9h2M42 9h2M60 9h1M3 10h1M22 10h6M31 10h2M37 10h2M40 10h6M60 10h1M3 11h1M24 11h2M32 11h2M36 11h2M42 11h2M60 11h1M3 12h1M24 12h2M33 12h4M42 12h2M60 12h1M3 13h1M24 13h2M34 13h2M42 13h2M60 13h1M3 14h1M24 14h2M33 14h4M42 14h2M60 14h1M3 15h1M17 15h2M24 15h2M27 15h2M32 15h2M36 15h2M42 15h2M45 15h2M60 15h1M3 16h1M17 16h2M25 16h3M31 16h2M37 16h2M43 16h3M60 16h1M3 17h1M60 17h1M3 18h1M60 18h1M3 19h1M60 19h1M3 20h1M60 20h1M3 21h1M60 21h1M3 22h1M60 22h1M3 23h1M60 23h1M3 24h1M60 24h1M3 25h1M60 25h1M3 26h1M60 26h1M3 27h1M60 27h1M3 28h1M60 28h1M3 29h1M60 29h1M3 30h1M60 30h1M3 31h1M60 31h1M3 32h1M60 32h1M3 33h1M60 33h1M3 34h1M60 34h1M3 35h1M60 35h1M3 36h1M60 36h1M3 37h1M60 37h1M3 38h1M60 38h1M3 39h1M60 39h1M3 40h1M60 40h1M3 41h1M60 41h1M3 42h1M60 42h1M3 43h1M60 43h1M3 44h1M60 44h1M3 45h1M60 45h1M3 46h1M60 46h1M3 47h1M60 47h1M3 48h1M60 48h1M3 49h1M60 49h1M3 50h1M60 50h1M3 51h1M60 51h1M3 52h1M60 52h1M3 53h1M60 53h1M3 54h1M60 54h1M3 55h1M60 55h1M3 56h1M60 56h1M3 57h1M60 57h1M3 58h1M60 58h1M3 59h1M60 59h1M3 60h58" />
<path stroke="#ffffff" d="M10 4h50M9 5h51M8 6h52M7 7h18M26 7h17M44 7h16M6 8h18M26 8h16M44 8h16M5 9h19M26 9h16M44 9h16M4 10h18M28 10h3M33 10h4M39 10h1M46 10h14M4 11h20M26 11h6M34 11h2M38 11h4M44 11h16M4 12h20M26 12h7M37 12h5M44 12h16M4 13h20M26 13h8M36 13h6M44 13h16M4 14h20M26 14h7M37 14h5M44 14h16M4 15h13M19 15h5M26 15h1M29 15h3M34 15h2M38 15h4M44 15h1M47 15h13M4 16h13M19 16h6M28 16h3M33 16h4M39 16h4M46 16h14M4 17h56M4 18h56M4 19h56M4 20h56M4 21h56M4 22h56M4 23h56M4 24h56M4 25h56M4 26h56M4 27h56M4 28h56M4 29h56M4 30h56M4 31h56M4 32h56M4 33h56M4 34h56M4 35h56M4 36h56M4 37h56M4 38h56M4 39h56M4 40h56M4 41h56M4 42h56M4 43h56M4 44h56M4 45h56M4 46h56M4 47h56M4 48h56M4 49h56M4 50h56M4 51h56M4 52h56M4 53h56M4 54h56M4 55h56M4 56h56M4 57h56M4 58h56M4 59h56" />
</svg>