<svg xmlns="http://www.w3.org/2000/svg" viewBox="0 -0.5 64 64" shape-rendering="crispEdges">
<metadata>Made with Pixels to Svg https://codepen.io/shshaw/pen/XbxvNj</metadata>
<path stroke="#000000" d="M2 2h21M2 3h1M22 3h1M2 4h1M22 4h39M2 5h1M5 5h2M8 5h2M11 5h2M22 5h1M60 5h1M2 6h1M5 6h2M8 6h2M11 6h2M22 6h1M60 6h1M2 7h1M22 7h1M60 7h1M2 8h1M22 8h40M2 9h1M61 9h1M2 10h1M61 10h1M2 11h1M61 11h1M2 12h1M61 12h1M2 13h1M16 13h3M61 13h1M2 14h1M16 14h5M61 14h1M2 15h1M61 15h1M2 16h1M19 16h4M61 16h1M2 17h1M21 17h3M61 17h1M2 18h1M20 18h2M61 18h1M2 19h1M61 19h1M2 20h1M20 20h4M61 20h1M2 21h1M20 21h1M23 21h1M61 21h1M2 22h1M20 22h1M23 22h1M61 22h1M2 23h1M18 23h30M61 23h1M2 24h1M18 24h1M47 24h1M61 24h1M2 25h1M18 25h1M20 25h26M47 25h1M61 25h1M2 26h1M18 26h1M20 26h1M45 26h1M47 26h1M61 26h1M2 27h1M18 27h1M20 27h1M28 27h10M45 27h1M47 27h1M61 27h1M2 28h1M18 28h1M20 28h1M28 28h1M37 28h1M45 28h1M47 28h1M61 28h1M2 29h1M18 29h1M20 29h1M45 29h1M47 29h1M61 29h1M2 30h1M18 30h1M20 30h1M45 30h1M47 30h1M61 30h1M2 31h1M18 31h1M20 31h1M45 31h1M47 31h1M61 31h1M2 32h1M18 32h1M20 32h1M45 32h1M47 32h1M61 32h1M2 33h1M18 33h1M20 33h1M45 33h1M47 33h1M61 33h1M2 34h1M18 34h1M20 34h1M45 34h1M47 34h1M61 34h1M2 35h1M18 35h1M20 35h1M45 35h1M47 35h1M61 35h1M2 36h1M18 36h1M20 36h1M45 36h1M47 36h1M61 36h1M2 37h1M18 37h1M20 37h1M45 37h1M47 37h1M61 37h1M2 38h1M18 38h1M20 38h1M45 38h1M47 38h1M61 38h1M2 39h1M18 39h1M20 39h1M45 39h1M47 39h1M61 39h1M2 40h1M18 40h1M20 40h1M45 40h1M47 40h1M61 40h1M2 41h1M18 41h1M20 41h1M45 41h1M47 41h1M61 41h1M2 42h1M18 42h1M20 42h1M45 42h1M47 42h1M61 42h1M2 43h1M18 43h1M20 43h1M45 43h1M47 43h1M61 43h1M2 44h1M18 44h1M20 44h1M45 44h1M47 44h1M61 44h1M2 45h1M18 45h1M20 45h1M45 45h1M47 45h1M61 45h1M2 46h1M18 46h1M20 46h1M45 46h1M47 46h1M61 46h1M2 47h1M18 47h1M20 47h1M45 47h1M47 47h1M61 47h1M2 48h1M18 48h1M20 48h1M45 48h1M47 48h1M61 48h1M2 49h1M18 49h1M20 49h1M45 49h1M47 49h1M61 49h1M2 50h1M18 50h1M20 50h26M47 50h1M61 50h1M2 51h1M18 51h1M47 51h1M61 51h1M2 52h1M18 52h30M61 52h1M2 53h1M61 53h1M2 54h1M61 54h1M2 55h1M61 55h1M2 56h1M61 56h1M2 57h1M61 57h1M2 58h1M61 58h1M2 59h1M61 59h1M2 60h1M61 60h1M2 61h60" />
<path stroke="#ffc20e" d="M3 3h19M3 4h1M21 4h1M3 5h1M21 5h1M3 6h1M21 6h1M3 7h1M21 7h1M3 8h19M3 9h58M3 10h58M3 11h58M3 12h58M3 13h13M19 13h42M3 14h13M21 14h40M3 15h58M3 16h16M23 16h38M3 17h18M24 17h37M3 18h17M22 18h39M3 19h58M3 20h17M24 20h37M3 21h17M21 21h2M24 21h37M3 22h17M21 22h2M24 22h37M3 23h15M48 23h13M3 24h15M19 24h28M48 24h13M3 25h15M19 25h1M46 25h1M48 25h13M3 26h15M19 26h1M21 26h24M46 26h1M48 26h13M3 27h15M19 27h1M21 27h7M38 27h7M46 27h1M48 27h13M3 28h15M19 28h1M21 28h7M29 28h8M38 28h7M46 28h1M48 28h13M3 29h15M19 29h1M21 29h24M46 29h1M48 29h13M3 30h15M19 30h1M21 30h24M46 30h1M48 30h13M3 31h15M19 31h1M21 31h24M46 31h1M48 31h13M3 32h15M19 32h1M21 32h24M46 32h1M48 32h13M3 33h15M19 33h1M21 33h24M46 33h1M48 33h13M3 34h15M19 34h1M21 34h24M46 34h1M48 34h13M3 35h15M19 35h1M21 35h24M46 35h1M48 35h13M3 36h15M19 36h1M21 36h24M46 36h1M48 36h13M3 37h15M19 37h1M21 37h24M46 37h1M48 37h13M3 38h15M19 38h1M21 38h24M46 38h1M48 38h13M3 39h15M19 39h1M21 39h24M46 39h1M48 39h13M3 40h15M19 40h1M21 40h24M46 40h1M48 40h13M3 41h15M19 41h1M21 41h24M46 41h1M48 41h13M3 42h15M19 42h1M21 42h24M46 42h1M48 42h13M3 43h15M19 43h1M21 43h24M46 43h1M48 43h13M3 44h15M19 44h1M21 44h24M46 44h1M48 44h13M3 45h15M19 45h1M21 45h24M46 45h1M48 45h13M3 46h15M19 46h1M21 46h24M46 46h1M48 46h13M3 47h15M19 47h1M21 47h24M46 47h1M48 47h13M3 48h15M19 48h1M21 48h24M46 48h1M48 48h13M3 49h15M19 49h1M21 49h24M46 49h1M48 49h13M3 50h15M19 50h1M46 50h1M48 50h13M3 51h15M19 51h28M48 51h13M3 52h15M48 52h13M3 53h58M3 54h58M3 55h58M3 56h58M3 57h58M3 58h58M3 59h58M3 60h58" />
<path stroke="#ffffff" d="M4 4h17M4 5h1M7 5h1M10 5h1M13 5h8M4 6h1M7 6h1M10 6h1M13 6h8M4 7h17" />
<path stroke="#ff7e00" d="M23 5h37M23 6h37M23 7h37" />
</svg>