<svg xmlns="http://www.w3.org/2000/svg" viewBox="0 -0.5 32 32" shape-rendering="crispEdges">
<metadata>Made with Pixels to Svg https://codepen.io/shshaw/pen/XbxvNj</metadata>
<path stroke="#000000" d="M5 1h26M4 2h1M30 2h1M3 3h1M30 3h1M2 4h1M30 4h1M1 5h1M30 5h1M1 6h1M30 6h1M1 7h1M30 7h1M1 8h1M30 8h1M1 9h1M30 9h1M1 10h1M30 10h1M1 11h1M30 11h1M1 12h1M30 12h1M1 13h1M30 13h1M1 14h1M30 14h1M1 15h1M30 15h1M1 16h1M30 16h1M1 17h1M30 17h1M1 18h1M30 18h1M1 19h1M30 19h1M1 20h1M30 20h1M1 21h1M30 21h1M1 22h1M30 22h1M1 23h1M30 23h1M1 24h1M30 24h1M1 25h1M30 25h1M1 26h1M30 26h1M1 27h1M30 27h1M1 28h1M30 28h1M1 29h1M30 29h1M1 30h30" />
<path stroke="#ffffff" d="M5 2h25M4 3h26M3 4h27M2 5h4M8 5h1M11 5h19M2 6h3M12 6h18M2 7h3M12 7h18M2 8h4M11 8h19M2 9h5M10 9h20M2 10h6M9 10h21M2 11h28M2 12h28M2 13h28M2 14h28M2 15h28M2 16h28M2 17h28M2 18h28M2 19h28M2 20h28M2 21h28M2 22h28M2 23h28M2 24h28M2 25h28M2 26h28M2 27h28M2 28h28M2 29h28" />
<path stroke="#ff315a" d="M6 5h2M9 5h2M5 6h7M5 7h7M6 8h5M7 9h3M8 10h1" />
</svg>