<svg xmlns="http://www.w3.org/2000/svg" viewBox="0 -0.5 32 32" shape-rendering="crispEdges">
<metadata>Made with Pixels to Svg https://codepen.io/shshaw/pen/XbxvNj</metadata>
<path stroke="#000000" d="M1 1h11M1 2h1M11 2h19M1 3h1M4 3h1M6 3h1M11 3h1M29 3h1M1 4h1M11 4h20M1 5h1M30 5h1M1 6h1M30 6h1M1 7h1M30 7h1M1 8h1M11 8h10M30 8h1M1 9h1M11 9h1M20 9h1M30 9h1M1 10h1M11 10h1M20 10h1M30 10h1M1 11h1M11 11h1M20 11h1M30 11h1M1 12h1M11 12h2M19 12h2M30 12h1M1 13h1M11 13h4M17 13h4M30 13h1M1 14h1M11 14h10M30 14h1M1 15h1M11 15h10M30 15h1M1 16h1M14 16h4M30 16h1M1 17h1M11 17h10M30 17h1M1 18h1M11 18h1M15 18h2M20 18h1M30 18h1M1 19h1M11 19h1M15 19h2M20 19h1M30 19h1M1 20h1M11 20h1M15 20h2M20 20h1M30 20h1M1 21h1M11 21h1M15 21h2M20 21h1M30 21h1M1 22h1M11 22h1M15 22h2M20 22h1M30 22h1M1 23h1M11 23h1M13 23h6M20 23h1M30 23h1M1 24h1M11 24h10M30 24h1M1 25h1M11 25h10M30 25h1M1 26h1M30 26h1M1 27h1M30 27h1M1 28h1M30 28h1M1 29h1M30 29h1M1 30h30" />
<path stroke="#ffc20e" d="M2 2h9M2 3h1M10 3h1M2 4h9M2 5h28M2 6h28M2 7h28M2 8h9M21 8h9M2 9h9M12 9h8M21 9h9M2 10h9M12 10h8M21 10h9M2 11h9M12 11h8M21 11h9M2 12h9M13 12h6M21 12h9M2 13h9M15 13h2M21 13h9M2 14h9M21 14h9M2 15h9M21 15h9M2 16h12M18 16h12M2 17h9M21 17h9M2 18h9M12 18h3M17 18h3M21 18h9M2 19h9M12 19h3M17 19h3M21 19h9M2 20h9M12 20h3M17 20h3M21 20h9M2 21h9M12 21h3M17 21h3M21 21h9M2 22h9M12 22h3M17 22h3M21 22h9M2 23h9M12 23h1M19 23h1M21 23h9M2 24h9M21 24h9M2 25h9M21 25h9M2 26h28M2 27h28M2 28h28M2 29h28" />
<path stroke="#ffffff" d="M3 3h1M5 3h1M7 3h3" />
<path stroke="#ff7e00" d="M12 3h17" />
</svg>