<svg xmlns="http://www.w3.org/2000/svg" viewBox="0 -0.5 32 32" shape-rendering="crispEdges">
<metadata>Made with Pixels to Svg https://codepen.io/shshaw/pen/XbxvNj</metadata>
<path stroke="#000000" d="M1 1h11M1 2h1M11 2h19M1 3h1M4 3h1M6 3h1M11 3h1M29 3h1M1 4h1M11 4h20M1 5h1M30 5h1M1 6h1M30 6h1M1 7h1M9 7h2M30 7h1M1 8h1M30 8h1M1 9h1M10 9h2M30 9h1M1 10h1M10 10h2M30 10h1M1 11h1M9 11h15M30 11h1M1 12h1M9 12h1M23 12h1M30 12h1M1 13h1M9 13h1M11 13h11M23 13h1M30 13h1M1 14h1M9 14h1M11 14h1M21 14h1M23 14h1M30 14h1M1 15h1M9 15h1M11 15h1M14 15h5M21 15h1M23 15h1M30 15h1M1 16h1M9 16h1M11 16h1M14 16h1M18 16h1M21 16h1M23 16h1M30 16h1M1 17h1M9 17h1M11 17h1M21 17h1M23 17h1M30 17h1M1 18h1M9 18h1M11 18h1M21 18h1M23 18h1M30 18h1M1 19h1M9 19h1M11 19h1M21 19h1M23 19h1M30 19h1M1 20h1M9 20h1M11 20h1M21 20h1M23 20h1M30 20h1M1 21h1M9 21h1M11 21h1M21 21h1M23 21h1M30 21h1M1 22h1M9 22h1M11 22h1M21 22h1M23 22h1M30 22h1M1 23h1M9 23h1M11 23h1M21 23h1M23 23h1M30 23h1M1 24h1M9 24h1M11 24h11M23 24h1M30 24h1M1 25h1M9 25h1M23 25h1M30 25h1M1 26h1M9 26h15M30 26h1M1 27h1M30 27h1M1 28h1M30 28h1M1 29h1M30 29h1M1 30h30" />
<path stroke="#ffc20e" d="M2 2h9M2 3h1M10 3h1M2 4h9M2 5h28M2 6h28M2 7h7M11 7h19M2 8h28M2 9h8M12 9h18M2 10h8M12 10h18M2 11h7M24 11h6M2 12h7M10 12h13M24 12h6M2 13h7M10 13h1M22 13h1M24 13h6M2 14h7M10 14h1M12 14h9M22 14h1M24 14h6M2 15h7M10 15h1M12 15h2M19 15h2M22 15h1M24 15h6M2 16h7M10 16h1M12 16h2M15 16h3M19 16h2M22 16h1M24 16h6M2 17h7M10 17h1M12 17h9M22 17h1M24 17h6M2 18h7M10 18h1M12 18h9M22 18h1M24 18h6M2 19h7M10 19h1M12 19h9M22 19h1M24 19h6M2 20h7M10 20h1M12 20h9M22 20h1M24 20h6M2 21h7M10 21h1M12 21h9M22 21h1M24 21h6M2 22h7M10 22h1M12 22h9M22 22h1M24 22h6M2 23h7M10 23h1M12 23h9M22 23h1M24 23h6M2 24h7M10 24h1M22 24h1M24 24h6M2 25h7M10 25h13M24 25h6M2 26h7M24 26h6M2 27h28M2 28h28M2 29h28" />
<path stroke="#ffffff" d="M3 3h1M5 3h1M7 3h3" />
<path stroke="#ff7e00" d="M12 3h17" />
</svg>